# xmcd
#
# Track frame offsets:
#	150
#	12323
#	26753
#	42419
#	54734
#	67648
#	89814
#	100674
#	112009
#	130240
#	151312
#	160547
#	174682
#	196391
#	212598
#	224785
#	240486
#	259290
#	280855
#	293186
#
# Disc length: 4058 seconds
#
# Revision: 1
# Processed by: cddbd v1.5.2PL0 Copyright (c) Steve Scherf et al.
# Submitted via: EasyCDDAExtractor 12.0.0.1
#
DISCID=290fd814
DTITLE=Various Artist - 101 Soul Anthems
DYEAR=2011
DGENRE=Soul
TTITLE0=Otis Redding - (Sittin' On) The Dock Of The Bay
TTITLE1=Marvin Gaye - I Heard It Through The Grapevine
TTITLE2=Lorraine Ellison - Stay With Me Baby
TTITLE3=Aretha Franklin - (You Make Me Feel Like) A Natrual Woman
TTITLE4=Dionne Warwick - Walk On By
TTITLE5=Randy Crawford - One Day I'll Fly Away
TTITLE6=Dusty Springfield - Son Of A Preacher Man
TTITLE7=James Carr - The Dark End Of The Street
TTITLE8=Nina Simone - (I Loves You) Porgy
TTITLE9=Minni Riperton - Inside My Love
TTITLE10=Bill Withers - Ain't No Sunshine
TTITLE11=Hall and Oats - Sara Smile
TTITLE12=Heatwave - Always And Forever
TTITLE13=Patti Austin and James Ingram - Baby Come To Me
TTITLE14=Baby Washington - That's How Heartaches Are Made
TTITLE15=Peabo Bryson and Robert Flack - Tonight I Celibrate My Love
TTITLE16=Larry Graham - One In A Million You
TTITLE17=Atlantic Starr - Always
TTITLE18=Joe Cocker - You Are So Beautiful
TTITLE19=The Drifters - Save The Last Dance For Me
EXTD=YEAR: 2011
EXTT0=
EXTT1=
EXTT2=
EXTT3=
EXTT4=
EXTT5=
EXTT6=
EXTT7=
EXTT8=
EXTT9=
EXTT10=
EXTT11=
EXTT12=
EXTT13=
EXTT14=
EXTT15=
EXTT16=
EXTT17=
EXTT18=
EXTT19=
PLAYORDER=
